<svg xmlns="http://www.w3.org/2000/svg" width="128" height="128" viewBox="0 0 128 128" role="img" aria-labelledby="title desc">
  <title id="title">Tab Out icon</title>
  <desc id="desc">Layered digital folders flowing into a glowing secure folder.</desc>
  <defs>
    <radialGradient id="tileGlow" cx="50%" cy="45%" r="70%">
      <stop offset="0" stop-color="#092545"/>
      <stop offset="0.58" stop-color="#041225"/>
      <stop offset="1" stop-color="#01050C"/>
    </radialGradient>
    <linearGradient id="tileEdge" x1="22" y1="4" x2="112" y2="120" gradientUnits="userSpaceOnUse">
      <stop stop-color="#16385A"/>
      <stop offset="0.45" stop-color="#061A32"/>
      <stop offset="1" stop-color="#00050B"/>
    </linearGradient>
    <linearGradient id="folderBack" x1="28" y1="34" x2="80" y2="75" gradientUnits="userSpaceOnUse">
      <stop stop-color="#193B5E" stop-opacity="0.92"/>
      <stop offset="1" stop-color="#0B213E" stop-opacity="0.86"/>
    </linearGradient>
    <linearGradient id="folderMid" x1="36" y1="45" x2="90" y2="83" gradientUnits="userSpaceOnUse">
      <stop stop-color="#1A5470" stop-opacity="0.86"/>
      <stop offset="1" stop-color="#113451" stop-opacity="0.9"/>
    </linearGradient>
    <linearGradient id="folderFront" x1="62" y1="54" x2="110" y2="92" gradientUnits="userSpaceOnUse">
      <stop stop-color="#5DF8F1"/>
      <stop offset="0.55" stop-color="#35D7D0"/>
      <stop offset="1" stop-color="#18AFA8"/>
    </linearGradient>
    <linearGradient id="folderFace" x1="67" y1="59" x2="104" y2="91" gradientUnits="userSpaceOnUse">
      <stop stop-color="#70F8F3" stop-opacity="0.96"/>
      <stop offset="1" stop-color="#31C9C4" stop-opacity="0.96"/>
    </linearGradient>
    <filter id="softShadow" x="-30%" y="-30%" width="160%" height="170%">
      <feDropShadow dx="0" dy="4" stdDeviation="4" flood-color="#000813" flood-opacity="0.65"/>
    </filter>
    <filter id="cyanGlow" x="-55%" y="-55%" width="210%" height="220%">
      <feDropShadow dx="0" dy="0" stdDeviation="2" flood-color="#51FFF2" flood-opacity="0.95"/>
      <feDropShadow dx="0" dy="0" stdDeviation="6" flood-color="#21D8CF" flood-opacity="0.55"/>
    </filter>
    <filter id="lineGlow" x="-40%" y="-60%" width="180%" height="220%">
      <feGaussianBlur stdDeviation="0.45" result="blur"/>
      <feMerge>
        <feMergeNode in="blur"/>
        <feMergeNode in="SourceGraphic"/>
      </feMerge>
    </filter>
    <pattern id="circuit" width="24" height="24" patternUnits="userSpaceOnUse">
      <path d="M1 11H9V3M9 3H16M16 3V8H22M2 19H12V14H19M19 14V22" fill="none" stroke="#1B5E83" stroke-width="0.75" opacity="0.34"/>
      <circle cx="9" cy="3" r="1.1" fill="#1B5E83" opacity="0.4"/>
      <circle cx="19" cy="14" r="1" fill="#1B5E83" opacity="0.35"/>
      <circle cx="22" cy="8" r="0.9" fill="#1B5E83" opacity="0.3"/>
    </pattern>
  </defs>

  <rect x="2" y="1" width="124" height="126" rx="29" fill="url(#tileGlow)"/>
  <rect x="2.5" y="1.5" width="123" height="125" rx="28.5" fill="none" stroke="url(#tileEdge)" stroke-width="2.6"/>
  <rect x="8" y="8" width="112" height="112" rx="25" fill="url(#circuit)" opacity="0.55"/>
  <path d="M19 72H47M11 43H38M91 35H118M83 102H112M36 13V36M53 10V33M74 8V29M43 96V120" stroke="#14496D" stroke-width="0.65" opacity="0.36"/>

  <g filter="url(#softShadow)">
    <path d="M23 37C23 33 26.2 29.8 30.2 29.8H46.6C49.1 29.8 51.4 31.1 52.8 33.2L57.3 40.2C58.6 42.3 60.9 43.6 63.4 43.6H76.8C80.8 43.6 84 46.8 84 50.8V70.5C84 74.5 80.8 77.7 76.8 77.7H30.2C26.2 77.7 23 74.5 23 70.5V37Z" fill="url(#folderBack)" stroke="#376486" stroke-width="1" opacity="0.88"/>
    <path d="M31 46.2C31 42.2 34.2 39 38.2 39H54.7C57.1 39 59.4 40.2 60.7 42.2L65.2 48.8C66.5 50.8 68.8 52 71.2 52H84.8C88.8 52 92 55.2 92 59.2V78.7C92 82.7 88.8 85.9 84.8 85.9H38.2C34.2 85.9 31 82.7 31 78.7V46.2Z" fill="url(#folderMid)" stroke="#4D8398" stroke-width="1" opacity="0.84"/>
    <path d="M39 54.8C39 50.8 42.2 47.6 46.2 47.6H60.9C63.4 47.6 65.7 48.9 67 51L70.2 56.2C71.5 58.3 73.8 59.6 76.3 59.6H88.8C92.8 59.6 96 62.8 96 66.8V83.1C96 87.1 92.8 90.3 88.8 90.3H46.2C42.2 90.3 39 87.1 39 83.1V54.8Z" fill="#1D7181" opacity="0.66" stroke="#5EA8B6" stroke-width="0.9"/>
  </g>

  <g filter="url(#lineGlow)" fill="none" stroke-linecap="round">
    <path d="M4 72C18 65 32 65 47 72C56 76 63 76 72 72" stroke="#64FFF5" stroke-width="1.1" opacity="0.86"/>
    <path d="M5 68C22 75 38 76 52 70C59 67 66 67 75 70" stroke="#28D7D1" stroke-width="0.8" opacity="0.8"/>
    <path d="M7 77C22 70 36 69 50 76C58 80 67 79 75 75" stroke="#45F1E8" stroke-width="0.75" opacity="0.72"/>
    <path d="M13 64C27 69 38 70 51 66C58 64 66 64 76 67" stroke="#52FFF4" stroke-width="0.55" opacity="0.6"/>
    <circle cx="17" cy="66" r="0.8" fill="#7FFFF7" opacity="0.75"/>
    <circle cx="29" cy="72" r="0.7" fill="#7FFFF7" opacity="0.65"/>
    <circle cx="43" cy="67" r="0.65" fill="#7FFFF7" opacity="0.6"/>
    <circle cx="55" cy="75" r="0.55" fill="#7FFFF7" opacity="0.58"/>
  </g>

  <g filter="url(#cyanGlow)">
    <path d="M60 62.5C60 56.8 64.6 52.2 70.3 52.2H82.4C85.8 52.2 88.9 53.9 90.8 56.6L94.7 62.1C96.6 64.8 99.7 66.4 103 66.4H107.8C113.5 66.4 118.1 71 118.1 76.7V90.4C118.1 96.1 113.5 100.7 107.8 100.7H70.3C64.6 100.7 60 96.1 60 90.4V62.5Z" fill="url(#folderFront)"/>
    <path d="M65.2 65.3C65.2 60.9 68.8 57.3 73.2 57.3H82.7C85.4 57.3 87.8 58.6 89.3 60.8L92.8 65.8C94.3 68 96.8 69.3 99.4 69.3H106.4C110.8 69.3 114.4 72.9 114.4 77.3V88.5C114.4 92.9 110.8 96.5 106.4 96.5H73.2C68.8 96.5 65.2 92.9 65.2 88.5V65.3Z" fill="url(#folderFace)" stroke="#B9FFF9" stroke-width="0.85" opacity="0.92"/>
    <path d="M68.4 62.3H81.5C84.3 62.3 86.9 63.7 88.5 66L91.5 70.3C93.1 72.6 95.7 74 98.5 74H112.2" stroke="#062C36" stroke-width="0.75" opacity="0.28"/>
    <path d="M69 90H108M70 86H110M71 82H109" stroke="#0E6F76" stroke-width="0.45" opacity="0.26"/>
  </g>
</svg>
